<svg xmlns="http://www.w3.org/2000/svg" viewBox="0 0 240 240" role="img">
  <defs>
    <linearGradient id="bg" x1="0" x2="1" y1="0" y2="1">
      <stop offset="0" stop-color="#d4efc8"/>
      <stop offset="1" stop-color="#9ecf8a"/>
    </linearGradient>
  </defs>
  <circle cx="120" cy="120" r="120" fill="url(#bg)"/>
  <circle cx="120" cy="102" r="58" fill="#f3c99f"/>
  <path d="M62 102 C68 47 176 38 180 104 C164 85 140 77 115 80 C91 82 73 91 62 102 Z" fill="#60493d"/>
  <circle cx="100" cy="106" r="5" fill="#4b4039"/>
  <circle cx="141" cy="106" r="5" fill="#4b4039"/>
  <path d="M106 132 Q120 142 134 132" fill="none" stroke="#a5675a" stroke-width="5" stroke-linecap="round"/>
  <path d="M62 201 C82 167 154 167 179 201 L190 240 H50 Z" fill="#7ba6bd"/>
  <path d="M50 240 C55 207 76 183 120 182 C164 183 185 207 190 240 Z" fill="#8fb7ca"/>
  <path d="M66 211 C73 201 82 193 94 188" fill="none" stroke="#d6edf2" stroke-width="7" stroke-linecap="round"/>
  <path d="M173 72 C164 53 148 40 131 35" fill="none" stroke="#6ca463" stroke-width="10" stroke-linecap="round"/>
  <path d="M184 69 C177 51 166 42 151 35" fill="none" stroke="#5b8b59" stroke-width="10" stroke-linecap="round"/>
  <circle cx="66" cy="188" r="10" fill="#e5f5d8"/>
  <circle cx="177" cy="184" r="10" fill="#e5f5d8"/>
</svg>